#N canvas 83 30 1104 636 10;
#X obj 97 29 inlet;
#X obj 471 95 inlet;
#X text 93 4 trigger;
#X obj 97 50 sel 0;
#X obj 243 146 t b;
#X obj 243 179 f \$1;
#X obj 243 201 pack 0 \$2;
#X obj 528 95 inlet;
#X obj 489 214 del \$2;
#X obj 248 362 line~;
#X obj 489 236 f \$4;
#X obj 489 302 pack 0 \$3;
#X obj 581 95 inlet;
#X obj 643 95 inlet;
#X obj 716 94 inlet;
#X msg 97 71 stop;
#X obj 656 186 pack 0 \$5;
#X text 471 73 level;
#X obj 489 279 * \$1;
#X obj 248 384 outlet~;
#X text 109 310 and pack with;
#X text 110 330 attack time;
#X text 23 44 if zero;
#X text 24 61 release;
#X text 4 78 and cancel;
#X text 35 95 decay;
#X text 326 208 on attack \, set a;
#X text 320 241 recall sustain value;
#X text 357 314 pack with decay time;
#X text 607 166 on release ramp;
#X text 701 166 back to zero;
#X obj 489 258 * 0.01;
#X text -8 572 Objects such as "f" and "pack" can be given dollar sign
arguments to initialize their contents from adsr's creation arguments.
Inlets are supplied to change them on the fly.;
#X text 524 73 attack;
#X text 582 72 decay;
#X text 636 73 sustain;
#X text 713 73 release;
#X text 123 102 attack;
#X obj 124 120 moses;
#X obj 124 146 t b b;
#X msg 151 175 0;
#X text 22 253 optionally;
#X text 12 271 bash to zero;
#X text 27 226 ATTACK:;
#X text -7 482 When you send this patch a positive trigger it schedules
a line~ to do an attack and decay \, and if zero \, it starts the release
ramp.;
#X text 166 119 test for negative trigger;
#X text 164 139 if so \, zero;
#X text 165 152 the output;
#X text 277 156 in any case;
#X text 345 291 multiply by peak level;
#X text 322 222 delay for sustain;
#X text 318 264 convert from percent;
#X text 162 272 ... then;
#X text 110 291 recall peak level;
#X text 475 57 peak;
#X text 280 140 ... do this;
#X text -8 534 Negative triggers cause the output to jump to zero and
then attack (instead of attacking from the current location).;
#X obj 941 117 loadbang;
#X obj 617 266 f \$1;
#X obj 648 266 f \$2;
#X obj 679 266 f \$3;
#X obj 710 266 f \$4;
#X obj 741 266 f \$5;
#X text 294 25 Arguments: level \, attack time \, decay time \, sustain
level \, release time. level is between 0 to 1 \, A \, D \, and R are
in msec and S is in percent.;
#X floatatom 727 358 5 0 0 1 part_of_sustain_in_graphic - -;
#X obj 727 338 / 3;
#X obj 626 376 +;
#X floatatom 626 396 5 0 0 1 total(raw) - -;
#X obj 406 387 expr ($f2*1000/$f1);
#X obj 415 406 expr ($f2*1000/$f1);
#X obj 424 425 expr ($f2*1000/$f1);
#X obj 433 444 expr ($f2*1000/$f1);
#X text 563 386 att;
#X text 573 406 dec;
#X text 582 424 sus;
#X text 591 443 rel;
#X obj 648 336 t f f;
#X floatatom 553 444 5 0 0 0 - - -;
#X floatatom 544 425 5 0 0 0 - - -;
#X floatatom 535 406 5 0 0 0 - - -;
#X floatatom 526 388 5 0 0 0 - - -;
#X obj 809 325 * \$1;
#X obj 809 306 * 0.01;
#X text 853 315 sustain lvl;
#X text 991 436 III (sustain);
#X obj 455 476 expr ($f1+$f2+$f3);
#X text 385 476 att+dec+sus;
#X floatatom 720 470 8 0 0 0 - - -;
#X floatatom 738 492 8 0 0 0 - - -;
#X floatatom 757 512 8 0 0 0 - - -;
#X obj 717 399 expr $f2/$f1;
#X obj 941 151 t b;
#X obj 869 579 tabwrite adsr_testrange;
#X obj 869 559 pack f f;
#X obj 607 502 moses;
#X obj 634 483 +;
#X obj 573 523 moses;
#X obj 634 523 moses;
#X obj 925 559 line;
#X msg 992 538 0 0;
#X text 800 397 I Formel der att-Geraden;
#X text 851 423 II Formel der dec-Geraden;
#X text 857 445 IV Formel der rel-Geraden;
#X obj 686 422 expr ($f3-$f2)/($f1);
#X obj 573 546 *;
#X obj 634 546 expr ($f2);
#X obj 705 445 expr ($f2)/-($f1);
#X obj 661 595 expr (($f1-$f4)*$f2)+$f3;
#X obj 600 575 expr (($f1-$f4)*$f2)+$f3;
#X msg 925 538 1000 2000;
#X obj 992 518 del 2000;
#X obj 992 485 bng 15 250 50 0 empty empty empty 17 7 0 10 -262144
-1 -1;
#X obj 992 84 bng 15 250 50 0 empty empty graph_adsr -65 7 0 10 -262144
-1 -1;
#X obj 992 64 inlet;
#X obj 648 315 expr ($f3+$f2+$f1);
#X connect 0 0 3 0;
#X connect 1 0 5 1;
#X connect 1 0 18 1;
#X connect 1 0 58 0;
#X connect 1 0 91 0;
#X connect 3 0 15 0;
#X connect 3 0 16 0;
#X connect 3 1 38 0;
#X connect 4 0 5 0;
#X connect 4 0 8 0;
#X connect 5 0 6 0;
#X connect 6 0 9 0;
#X connect 7 0 6 1;
#X connect 7 0 8 1;
#X connect 7 0 59 0;
#X connect 7 0 91 0;
#X connect 8 0 10 0;
#X connect 9 0 19 0;
#X connect 10 0 31 0;
#X connect 11 0 9 0;
#X connect 12 0 11 1;
#X connect 12 0 60 0;
#X connect 12 0 91 0;
#X connect 13 0 10 1;
#X connect 13 0 61 0;
#X connect 13 0 91 0;
#X connect 14 0 16 1;
#X connect 14 0 62 0;
#X connect 14 0 91 0;
#X connect 15 0 8 0;
#X connect 16 0 9 0;
#X connect 18 0 11 0;
#X connect 31 0 18 0;
#X connect 38 0 39 0;
#X connect 38 1 4 0;
#X connect 39 0 4 0;
#X connect 39 1 40 0;
#X connect 40 0 9 0;
#X connect 57 0 91 0;
#X connect 57 0 112 0;
#X connect 58 0 81 1;
#X connect 58 0 103 1;
#X connect 58 0 108 2;
#X connect 58 0 90 1;
#X connect 59 0 68 1;
#X connect 59 0 114 2;
#X connect 60 0 114 1;
#X connect 60 0 69 1;
#X connect 61 0 82 0;
#X connect 62 0 71 1;
#X connect 62 0 114 0;
#X connect 64 0 70 1;
#X connect 64 0 66 1;
#X connect 65 0 64 0;
#X connect 66 0 67 0;
#X connect 67 0 68 0;
#X connect 67 0 69 0;
#X connect 67 0 70 0;
#X connect 67 0 71 0;
#X connect 68 0 80 0;
#X connect 69 0 79 0;
#X connect 70 0 78 0;
#X connect 71 0 77 0;
#X connect 76 0 66 0;
#X connect 76 1 65 0;
#X connect 77 0 106 0;
#X connect 78 0 85 0;
#X connect 79 0 95 0;
#X connect 79 0 85 1;
#X connect 79 0 103 0;
#X connect 80 0 90 0;
#X connect 80 0 96 1;
#X connect 80 0 95 1;
#X connect 80 0 85 2;
#X connect 80 0 108 3;
#X connect 81 0 103 2;
#X connect 81 0 105 1;
#X connect 81 0 106 1;
#X connect 81 0 107 2;
#X connect 82 0 81 0;
#X connect 85 0 97 1;
#X connect 85 0 107 3;
#X connect 87 0 104 1;
#X connect 88 0 108 1;
#X connect 89 0 107 1;
#X connect 90 0 87 0;
#X connect 91 0 58 0;
#X connect 91 0 59 0;
#X connect 91 0 60 0;
#X connect 91 0 61 0;
#X connect 91 0 62 0;
#X connect 93 0 92 0;
#X connect 94 0 96 0;
#X connect 94 1 97 0;
#X connect 95 0 94 1;
#X connect 96 0 104 0;
#X connect 96 1 108 0;
#X connect 97 0 105 0;
#X connect 97 1 107 0;
#X connect 98 0 94 0;
#X connect 98 0 93 1;
#X connect 99 0 98 0;
#X connect 103 0 88 0;
#X connect 104 0 93 0;
#X connect 105 0 93 0;
#X connect 106 0 89 0;
#X connect 107 0 93 0;
#X connect 108 0 93 0;
#X connect 109 0 98 0;
#X connect 110 0 99 0;
#X connect 111 0 110 0;
#X connect 111 0 109 0;
#X connect 112 0 111 0;
#X connect 113 0 112 0;
#X connect 114 0 76 0;
