#N canvas 436 186 818 482 10;
#X text 426 19 input 1: trigger: >0 startet attack&decay \, 0 release
;
#X obj 330 241 tgl 15 0 empty empty empty 17 7 0 10 -262144 -1 -1 0
1;
#X floatatom 351 240 5 0 0 0 - - -;
#X floatatom 373 219 5 0 0 0 - - -;
#X floatatom 394 240 5 0 0 0 - - -;
#X floatatom 416 219 5 0 300 0 - - -;
#X floatatom 437 240 5 0 0 0 - - -;
#N canvas 0 22 450 278 (subpatch) 0;
#X array adsr_testrange 1000 float 2;
#X coords 0 1 1000 0 200 140 1 1 0;
#X restore 540 160 graph;
#X obj 45 82 osc~;
#X floatatom 45 63 5 0 0 0 - - -;
#X obj 45 342 *~;
#X obj 87 103 / 100;
#X floatatom 87 84 5 0 0 0 - - -;
#X obj 330 35 t b b;
#X msg 357 96 1;
#X msg 330 96 0;
#X obj 45 412 dac~;
#X msg 74 20 440;
#X msg 104 20 880;
#X msg 45 20 220;
#N canvas 0 22 450 278 (subpatch) 0;
#X array adsr_testrange2 441 float 0;
#X coords 0 1 440 -1 200 140 1 0 0;
#X restore 540 316 graph;
#X obj 307 407 tabwrite~ adsr_testrange2;
#X obj 307 386 metro 44.1;
#X obj 307 367 tgl 15 0 empty empty empty 17 7 0 10 -262144 -1 -1 1
1;
#X text 426 33 input 2: peak level (0-1) $f1;
#X text 426 47 input 3: attack zu level (in ms) $f2;
#X text 426 61 input 4: decay zu sustain (in ms) $f3;
#X text 426 75 input 5: sustain level (in % von peak level) $f4;
#X text 426 89 input 6: post-trigger release von sustain zu 0 (in ms)
$f5;
#X obj 330 267 adsr+ 1 100 200 50 300;
#X obj 469 269 bng 15 250 50 0 empty empty empty 17 7 0 10 -262144
-1 -1;
#X obj 45 103 *~ 0.6;
#X obj 330 76 del 300;
#X obj 307 347 loadbang;
#X connect 1 0 29 0;
#X connect 2 0 29 1;
#X connect 3 0 29 2;
#X connect 4 0 29 3;
#X connect 5 0 29 4;
#X connect 6 0 29 5;
#X connect 8 0 31 0;
#X connect 9 0 8 0;
#X connect 9 0 13 0;
#X connect 10 0 16 0;
#X connect 10 0 21 0;
#X connect 10 0 16 1;
#X connect 11 0 31 1;
#X connect 12 0 11 0;
#X connect 13 0 32 0;
#X connect 13 1 14 0;
#X connect 14 0 1 0;
#X connect 15 0 1 0;
#X connect 17 0 9 0;
#X connect 18 0 9 0;
#X connect 19 0 9 0;
#X connect 22 0 21 0;
#X connect 23 0 22 0;
#X connect 29 0 10 1;
#X connect 30 0 29 6;
#X connect 31 0 10 0;
#X connect 32 0 15 0;
#X connect 33 0 23 0;
