#N canvas 478 63 802 536 10;
#X floatatom 44 41 5 0 0 2 frq - -;
#N canvas 84 46 1106 663 battery 1;
#X obj 47 32 inlet;
#X obj 49 589 outlet~;
#X obj 204 589 outlet~;
#X obj 49 544 catch~ choral1_oscs_left;
#X obj 204 544 catch~ choral1_oscs_right;
#N canvas 118 22 1017 721 multiosc 1;
#N canvas 0 22 252 297 square 0;
#X obj 69 -22 inlet;
#X obj 69 45 outlet~;
#X obj 69 2 osc~;
#X obj 90 -44 inlet;
#X obj 69 23 expr~ ((int($v1+1))-0.5)*2;
#X connect 0 0 2 0;
#X connect 2 0 4 0;
#X connect 3 0 2 1;
#X connect 4 0 1 0;
#X restore 159 315 pd square;
#N canvas 274 260 322 323 triangle 0;
#X obj 73 -14 inlet;
#X obj 112 -38 inlet;
#X obj 73 14 phasor~;
#X obj 73 93 outlet~;
#X obj 73 54 expr~ (abs(($v1-0.5)*4)-1);
#X connect 0 0 2 0;
#X connect 1 0 2 1;
#X connect 2 0 4 0;
#X connect 4 0 3 0;
#X restore 83 222 pd triangle;
#N canvas 319 209 248 265 sawtooth 0;
#X obj 76 -7 inlet;
#X obj 76 17 phasor~;
#X obj 115 -29 inlet;
#X obj 76 38 expr~ ($v1-0.5)*2;
#X obj 76 60 outlet~;
#X connect 0 0 1 0;
#X connect 1 0 3 0;
#X connect 2 0 1 1;
#X connect 3 0 4 0;
#X restore 83 315 pd sawtooth;
#X obj 49 222 osc~;
#N canvas 0 22 450 300 allocator 0;
#X obj 95 60 inlet~;
#X obj 158 60 inlet~;
#X obj 312 60 inlet;
#X floatatom 312 107 5 0 0 0 - - -;
#X floatatom 110 112 5 0 0 0 - - -;
#X obj 312 82 expr ($f1+100)/200;
#X obj 110 91 expr ($f1*-1)+1;
#X obj 158 132 *~ 0.5;
#X obj 95 132 *~ 0.5;
#X obj 190 216 outlet~;
#X connect 0 0 8 0;
#X connect 1 0 7 0;
#X connect 2 0 5 0;
#X connect 3 0 6 0;
#X connect 3 0 7 1;
#X connect 4 0 8 1;
#X connect 5 0 3 0;
#X connect 6 0 4 0;
#X connect 7 0 9 0;
#X connect 8 0 9 0;
#X restore 49 277 pd allocator;
#X floatatom 118 254 5 -100 100 2 --____+ choral1 -;
#N canvas 0 22 450 300 allocator 0;
#X obj 95 60 inlet~;
#X obj 158 60 inlet~;
#X obj 312 60 inlet;
#X floatatom 312 107 5 0 0 0 - - -;
#X floatatom 110 112 5 0 0 0 - - -;
#X obj 312 82 expr ($f1+100)/200;
#X obj 110 91 expr ($f1*-1)+1;
#X obj 158 132 *~ 0.5;
#X obj 95 132 *~ 0.5;
#X obj 190 216 outlet~;
#X connect 0 0 8 0;
#X connect 1 0 7 0;
#X connect 2 0 5 0;
#X connect 3 0 6 0;
#X connect 3 0 7 1;
#X connect 4 0 8 1;
#X connect 5 0 3 0;
#X connect 6 0 4 0;
#X connect 7 0 9 0;
#X connect 8 0 9 0;
#X restore 49 441 pd allocator;
#X floatatom 118 419 5 -100 100 2 --____+ choral2 -;
#N canvas 0 22 450 300 allocator 0;
#X obj 95 60 inlet~;
#X obj 158 60 inlet~;
#X obj 312 60 inlet;
#X floatatom 312 107 5 0 0 0 - - -;
#X floatatom 110 112 5 0 0 0 - - -;
#X obj 312 82 expr ($f1+100)/200;
#X obj 110 91 expr ($f1*-1)+1;
#X obj 158 132 *~ 0.5;
#X obj 95 132 *~ 0.5;
#X obj 190 216 outlet~;
#X connect 0 0 8 0;
#X connect 1 0 7 0;
#X connect 2 0 5 0;
#X connect 3 0 6 0;
#X connect 3 0 7 1;
#X connect 4 0 8 1;
#X connect 5 0 3 0;
#X connect 6 0 4 0;
#X connect 7 0 9 0;
#X connect 8 0 9 0;
#X restore 83 370 pd allocator;
#X floatatom 152 348 5 -100 100 2 --____+ choral1 -;
#X obj 49 642 outlet~;
#X obj 49 20 inlet;
#X obj 89 20 inlet;
#X obj 230 398 delwrite~ mosc1 2000;
#X obj 230 420 delread~ mosc1;
#X obj 49 463 +~;
#X floatatom 410 309 5 0 2000 1 delay(ms) choral_del1 -;
#X floatatom 574 308 5 0 99 1 strength(0-99) choral_del2 -;
#X obj 321 420 / 100;
#X obj 230 441 *~ 0;
#N canvas 0 22 450 300 stereowidth 0;
#X obj 146 71 inlet~;
#X obj 146 167 outlet~;
#X obj 197 167 outlet~;
#X obj 179 138 z~;
#X obj 194 71 inlet;
#X obj 194 115 line;
#X msg 194 93 \$1 20;
#X connect 0 0 1 0;
#X connect 0 0 3 0;
#X connect 3 0 2 0;
#X connect 4 0 6 0;
#X connect 5 0 3 1;
#X connect 6 0 5 0;
#X restore 49 547 pd stereowidth;
#X obj 142 642 outlet~;
#X floatatom 230 530 5 0 2000 1 stereowidth(0=center) choral_width
-;
#N canvas 0 22 450 300 pulsator 0;
#X obj 64 55 inlet~;
#X obj 115 55 inlet;
#X obj 64 175 outlet~;
#X obj 64 115 -~;
#X obj 115 93 z~ 1;
#X obj 208 93 == 0;
#X obj 208 114 tgl 15 0 empty empty empty 17 7 0 10 -262144 -1 -1 1
1;
#X obj 243 93 == 0;
#X obj 243 114 tgl 15 0 empty empty empty 17 7 0 10 -262144 -1 -1 0
1;
#X obj 34 115 *~;
#X obj 152 93 loadbang;
#X obj 64 153 *~;
#X connect 0 0 4 0;
#X connect 0 0 9 0;
#X connect 0 0 3 0;
#X connect 1 0 4 1;
#X connect 1 0 5 0;
#X connect 3 0 11 0;
#X connect 4 0 3 1;
#X connect 5 0 6 0;
#X connect 6 0 7 0;
#X connect 6 0 9 1;
#X connect 7 0 8 0;
#X connect 8 0 11 1;
#X connect 9 0 2 0;
#X connect 10 0 6 0;
#X connect 11 0 2 0;
#X restore 49 504 pd pulsator;
#X floatatom 230 503 5 0 2000 1 pulse_offset(0=none) choral_pulse -
;
#N canvas 627 165 450 341 stereolocator 1;
#X floatatom 259 210 5 0 0 0 - - -;
#X obj 259 161 spigot;
#X floatatom 292 105 5 -100 100 0 - - -;
#X floatatom 78 210 5 0 0 0 - - -;
#X obj 78 161 spigot;
#X obj 111 140 >= 0;
#X obj 292 140 <= 0;
#X obj 259 184 expr (100-$f1*-1)*0.01;
#X obj 78 184 expr (100-$f1)*0.01;
#X obj 57 273 *~ 1;
#X obj 238 273 *~ 1;
#X obj 57 38 inlet~;
#X obj 238 37 inlet~;
#X obj 292 38 inlet;
#X obj 57 296 outlet~;
#X obj 238 296 outlet~;
#X obj 112 210 sel 0;
#X obj 294 209 sel 0;
#X obj 292 82 line;
#X msg 292 61 \$1 20;
#X connect 0 0 10 1;
#X connect 1 0 7 0;
#X connect 2 0 5 0;
#X connect 2 0 4 0;
#X connect 2 0 6 0;
#X connect 2 0 1 0;
#X connect 3 0 9 1;
#X connect 4 0 8 0;
#X connect 5 0 4 1;
#X connect 5 0 17 0;
#X connect 6 0 1 1;
#X connect 6 0 16 0;
#X connect 7 0 0 0;
#X connect 8 0 3 0;
#X connect 9 0 14 0;
#X connect 10 0 15 0;
#X connect 11 0 9 0;
#X connect 12 0 10 0;
#X connect 13 0 19 0;
#X connect 16 1 3 0;
#X connect 17 1 0 0;
#X connect 18 0 2 0;
#X connect 19 0 18 0;
#X restore 49 589 pd stereolocator;
#X obj 52 569 hsl 96 15 -100 100 0 0 empty choral_stereolocator stereo_pos
100 8 0 10 -262144 -1 -1 5200 1;
#X obj 49 151 pack f f;
#X msg 49 171 \$1 \$2;
#X obj 49 192 line;
#X floatatom 322 27 5 0 2000 1 glide choral_glide -;
#X obj 49 51 ftom;
#X obj 49 105 mtof;
#X floatatom 557 38 5 0 500 1 speed(ms) choral_randspeed -;
#X obj 491 82 metro;
#X obj 557 17 tgl 15 0 empty choral_randomize randomize? 17 7 0 10
-262144 -1 -1 0 1;
#X obj 491 122 random;
#X floatatom 557 59 5 0 2400 1 spread(x/100_notes) choral_randspread
-;
#X obj 491 143 / 100;
#X floatatom 357 471 5 0 0 0 - - -;
#X obj 49 484 *~ 1;
#X obj 49 526 clip~ -1 1;
#X obj 357 450 expr ((100-$f1))*0.01;
#X text 392 471 safety volume adjustment;
#X obj 491 185 -;
#X obj 506 165 / 200;
#X floatatom 491 206 5 0 0 0 - - -;
#X obj 49 83 +;
#X obj 473 208 bng 15 250 50 0 empty empty empty 17 7 0 10 -262144
-1 -1;
#X floatatom 49 128 5 0 0 0 - - -;
#X obj 11 105 sel 0;
#X msg 11 126 0;
#X obj 262 336 bng 15 250 50 0 empty choral_killdelay kill_delay 17
7 0 10 -262144 -1 -1;
#X msg 262 355 0;
#X obj 815 83 random 201;
#X obj 815 103 - 100;
#X obj 815 44 tgl 15 0 empty choral_randpan random_pan? 17 7 0 10 -262144
-1 -1 0 1;
#X obj 815 62 metro;
#X floatatom 842 22 5 0 0 1 panspeed(ms) choral_randpanspeed -;
#X floatatom 815 171 5 0 0 0 - - -;
#X obj 776 62 sel 0;
#X msg 776 82 0;
#X obj 815 147 line;
#X obj 479 586 bng 15 250 50 0 empty choral_randoffset random_offset?
17 7 0 10 -262144 -1 -1;
#X msg 815 127 \$1 500;
#X obj 479 604 random 2001;
#X floatatom 479 670 5 0 0 0 - - -;
#X obj 479 647 line;
#X msg 479 626 \$1 20;
#X obj 586 586 bng 15 250 50 0 empty choral_normalizeoffset normalize?
17 7 0 10 -262144 -1 -1;
#X msg 586 604 0;
#X obj 782 589 bng 15 250 50 0 empty choral_randwidth random_width?
17 7 0 10 -262144 -1 -1;
#X obj 782 607 random 2001;
#X floatatom 782 673 5 0 0 0 - - -;
#X obj 782 650 line;
#X msg 782 629 \$1 20;
#X obj 889 589 bng 15 250 50 0 empty choral_normalizewidth normalize?
17 7 0 10 -262144 -1 -1;
#X msg 889 607 0;
#X obj 563 79 bng 15 250 50 0 empty choral_conformize conformize 17
7 0 10 -262144 -1 -1;
#X msg 477 47 0;
#X obj 524 103 + 1;
#X obj 328 67 random;
#X obj 361 48 + 1;
#X obj 328 49 bng 15 250 50 0 empty choral_randglide empty 17 7 0 10
-262144 -1 -1;
#X floatatom 328 89 5 0 0 0 - - -;
#X obj 303 67 f;
#X obj 303 28 bng 15 250 50 0 empty choral_normalizeglide empty 17
7 0 10 -262144 -1 -1;
#X text 371 407 <----- delay line;
#X floatatom 410 370 5 0 0 0 - - -;
#X obj 410 349 random;
#X obj 443 330 + 1;
#X obj 410 331 bng 15 250 50 0 empty choral_randdelay empty 17 7 0
10 -262144 -1 -1;
#X obj 385 349 f;
#X obj 385 310 bng 15 250 50 0 empty choral_normalizedelay empty 17
7 0 10 -262144 -1 -1;
#X floatatom 574 368 5 0 0 0 - - -;
#X obj 574 347 random;
#X obj 607 328 + 1;
#X obj 574 329 bng 15 250 50 0 empty choral_randdelstrength empty 17
7 0 10 -262144 -1 -1;
#X obj 549 347 f;
#X obj 549 309 bng 15 250 50 0 empty choral_normalizedelstrength empty
17 7 0 10 -262144 -1 -1;
#X connect 0 0 8 1;
#X connect 1 0 4 1;
#X connect 2 0 8 0;
#X connect 3 0 4 0;
#X connect 4 0 6 0;
#X connect 5 0 4 2;
#X connect 6 0 15 0;
#X connect 7 0 6 2;
#X connect 8 0 6 1;
#X connect 9 0 8 2;
#X connect 11 0 31 0;
#X connect 12 0 3 1;
#X connect 12 0 1 1;
#X connect 12 0 2 1;
#X connect 12 0 0 1;
#X connect 14 0 19 0;
#X connect 15 0 13 0;
#X connect 15 0 40 0;
#X connect 16 0 92 0;
#X connect 16 0 90 0;
#X connect 17 0 18 0;
#X connect 17 0 98 0;
#X connect 17 0 96 0;
#X connect 18 0 19 1;
#X connect 19 0 15 1;
#X connect 20 0 25 0;
#X connect 20 1 25 1;
#X connect 22 0 20 1;
#X connect 23 0 41 0;
#X connect 24 0 23 1;
#X connect 25 0 10 0;
#X connect 25 1 21 0;
#X connect 26 0 25 2;
#X connect 27 0 28 0;
#X connect 28 0 29 0;
#X connect 29 0 3 0;
#X connect 29 0 1 0;
#X connect 29 0 2 0;
#X connect 29 0 0 0;
#X connect 30 0 82 0;
#X connect 30 0 85 0;
#X connect 31 0 47 0;
#X connect 32 0 49 0;
#X connect 33 0 34 1;
#X connect 34 0 36 0;
#X connect 35 0 34 0;
#X connect 36 0 38 0;
#X connect 37 0 45 0;
#X connect 37 0 80 0;
#X connect 38 0 44 0;
#X connect 39 0 40 1;
#X connect 40 0 23 0;
#X connect 41 0 20 0;
#X connect 42 0 39 0;
#X connect 44 0 46 0;
#X connect 45 0 44 1;
#X connect 46 0 47 1;
#X connect 46 0 48 0;
#X connect 47 0 32 0;
#X connect 47 0 50 0;
#X connect 48 0 47 0;
#X connect 49 0 27 0;
#X connect 50 0 51 0;
#X connect 51 0 49 0;
#X connect 52 0 53 0;
#X connect 53 0 42 0;
#X connect 53 0 19 1;
#X connect 54 0 55 0;
#X connect 55 0 64 0;
#X connect 56 0 57 0;
#X connect 56 0 60 0;
#X connect 57 0 54 0;
#X connect 58 0 57 1;
#X connect 59 0 25 2;
#X connect 60 0 61 0;
#X connect 61 0 64 0;
#X connect 62 0 59 0;
#X connect 63 0 65 0;
#X connect 64 0 62 0;
#X connect 65 0 68 0;
#X connect 66 0 23 1;
#X connect 67 0 66 0;
#X connect 68 0 67 0;
#X connect 69 0 70 0;
#X connect 70 0 68 0;
#X connect 71 0 72 0;
#X connect 72 0 75 0;
#X connect 73 0 20 1;
#X connect 74 0 73 0;
#X connect 75 0 74 0;
#X connect 76 0 77 0;
#X connect 77 0 75 0;
#X connect 78 0 79 0;
#X connect 79 0 46 0;
#X connect 80 0 36 1;
#X connect 81 0 84 0;
#X connect 82 0 81 1;
#X connect 83 0 81 0;
#X connect 84 0 27 1;
#X connect 85 0 84 0;
#X connect 86 0 85 0;
#X connect 88 0 14 0;
#X connect 89 0 88 0;
#X connect 90 0 89 1;
#X connect 91 0 89 0;
#X connect 92 0 88 0;
#X connect 93 0 92 0;
#X connect 94 0 42 0;
#X connect 95 0 94 0;
#X connect 96 0 95 1;
#X connect 97 0 95 0;
#X connect 98 0 94 0;
#X connect 99 0 98 0;
#X restore 47 100 pd multiosc;
#X text 57 615 obacht: delay lines beim kopieren umbenennen!!!!!!!!!!
;
#X obj 47 122 throw~ choral1_oscs_left;
#X obj 110 143 throw~ choral1_oscs_right;
#X obj 47 52 s choral1_frq;
#X obj 47 78 r choral1_frq;
#X obj 205 122 throw~ choral1_oscs_left;
#X obj 205 78 r choral1_frq;
#X obj 49 566 /~ 2;
#X obj 204 566 /~ 2;
#X connect 0 0 9 0;
#X connect 3 0 13 0;
#X connect 4 0 14 0;
#X connect 5 0 7 0;
#X connect 5 1 8 0;
#X connect 10 0 5 0;
#X connect 13 0 1 0;
#X connect 14 0 2 0;
#X restore 112 149 pd battery;
#N canvas 257 22 450 300 volume 0;
#X obj 90 56 inlet~;
#X obj 140 56 inlet~;
#X obj 192 56 inlet;
#X obj 192 76 / 100;
#X obj 140 100 *~ 0.7;
#X obj 90 100 *~ 0.7;
#X obj 90 138 outlet~;
#X obj 140 138 outlet~;
#X connect 0 0 5 0;
#X connect 1 0 4 0;
#X connect 2 0 3 0;
#X connect 3 0 4 1;
#X connect 3 0 5 1;
#X connect 4 0 7 0;
#X connect 5 0 6 0;
#X restore 112 209 pd volume;
#X floatatom 163 188 5 0 100 0 - - -;
#X obj 112 252 dac~;
#N canvas 509 376 450 300 oscilloscope 0;
#X obj 30 35 inlet~;
#X obj 76 35 inlet~;
#X obj 30 96 tabwrite~ choral1_left;
#X obj 76 119 tabwrite~ choral1_right;
#X obj 159 56 tgl 15 0 empty empty empty 17 7 0 10 -262144 -1 -1 1
1;
#X obj 159 35 loadbang;
#X obj 159 74 metro 44;
#X connect 0 0 2 0;
#X connect 1 0 3 0;
#X connect 4 0 6 0;
#X connect 5 0 4 0;
#X connect 6 0 2 0;
#X connect 6 0 3 0;
#X restore 174 231 pd oscilloscope;
#N canvas 0 22 450 300 (subpatch) 0;
#X array choral1_left 441 float 0;
#X coords 0 1 440 -1 200 140 1;
#X restore 517 31 graph;
#N canvas 0 22 450 300 (subpatch) 0;
#X array choral1_right 441 float 0;
#X coords 0 1 440 -1 200 140 1;
#X restore 517 195 graph;
#X obj 48 349 cnv 15 700 160 empty empty empty 20 12 0 14 -4032 -262144
0;
#X floatatom 76 372 5 -100 100 0 x - choral1;
#X floatatom 76 395 5 -100 100 0 y - choral2;
#X floatatom 215 462 5 0 2000 1 delay(ms) - choral_del1;
#X floatatom 215 485 5 0 99 1 strength(0-99) - choral_del2;
#X floatatom 205 394 5 0 2000 1 stereowidth(0=center) - choral_width
;
#X floatatom 205 371 5 0 2000 1 pulse_offset(0=none) - choral_pulse
;
#X obj 440 396 hsl 96 15 -100 100 0 1 choral_stereolocator empty stereo_pos
25 -8 0 10 -262144 -1 -1 5200 1;
#X msg 437 377 0;
#X floatatom 76 447 5 0 2000 1 glide - choral_glide;
#X obj 215 440 bng 15 250 50 0 choral_killdelay empty kill_delay 17
7 0 10 -262144 -1 -1;
#X obj 437 359 tgl 15 0 choral_randpan empty random_pan? 17 7 0 10
-262144 -1 -1 0 1;
#X floatatom 437 415 5 0 0 1 panspeed(ms) - choral_randpanspeed;
#X obj 168 353 bng 15 250 50 0 choral_randoffset empty random_offset?
17 7 0 10 -262144 -1 -1;
#X obj 275 353 bng 15 250 50 0 choral_normalizeoffset empty normalize?
17 7 0 10 -262144 -1 -1;
#X obj 168 413 bng 15 250 50 0 choral_randwidth empty random_width?
17 7 0 10 -262144 -1 -1;
#X obj 275 413 bng 15 250 50 0 choral_normalizewidth empty normalize?
17 7 0 10 -262144 -1 -1;
#X floatatom 595 399 5 0 500 1 speed(ms) - choral_randspeed;
#X obj 595 378 tgl 15 0 choral_randomize empty randomize? 17 7 0 10
-262144 -1 -1 0 1;
#X floatatom 595 420 5 0 2400 1 spread(x/100_notes) - choral_randspread
;
#X obj 595 358 bng 15 250 50 0 choral_conformize empty conformize 17
7 0 10 -262144 -1 -1;
#X text 235 158 hab delay-randomisierung vergessen. nachholen;
#X obj 76 485 bng 15 250 50 0 choral_normalizeglide empty normalize?
17 7 0 10 -262144 -1 -1;
#X obj 76 467 bng 15 250 50 0 choral_randglide empty randomize? 17
7 0 10 -262144 -1 -1;
#X obj 337 463 bng 15 250 50 0 choral_randdelay empty randomize? 17
7 0 10 -262144 -1 -1;
#X obj 422 463 bng 15 250 50 0 choral_normalizedelay empty normalize?
17 7 0 10 -262144 -1 -1;
#X obj 337 485 bng 15 250 50 0 choral_randdelstrength empty randomize?
17 7 0 10 -262144 -1 -1;
#X obj 422 485 bng 15 250 50 0 choral_normalizedelstrength empty normalize?
17 7 0 10 -262144 -1 -1;
#X msg 156 50 39;
#X msg 188 50 47;
#X msg 221 50 58;
#X obj 354 181 cnv 15 120 150 empty empty empty 20 12 0 14 -257985
-66577 0;
#N canvas 16 140 580 582 lfo 0;
#X obj 67 13 inlet;
#X obj 67 476 outlet~;
#N canvas 0 22 252 297 square 0;
#X obj 69 -22 inlet;
#X obj 69 45 outlet~;
#X obj 69 2 osc~;
#X obj 90 -44 inlet;
#X obj 69 23 expr~ ((int($v1+1))-0.5)*2;
#X connect 0 0 2 0;
#X connect 2 0 4 0;
#X connect 3 0 2 1;
#X connect 4 0 1 0;
#X restore 177 269 pd square;
#N canvas 274 260 322 323 triangle 0;
#X obj 73 -14 inlet;
#X obj 112 -38 inlet;
#X obj 73 14 phasor~;
#X obj 73 93 outlet~;
#X obj 73 54 expr~ (abs(($v1-0.5)*4)-1);
#X connect 0 0 2 0;
#X connect 1 0 2 1;
#X connect 2 0 4 0;
#X connect 4 0 3 0;
#X restore 101 176 pd triangle;
#N canvas 319 209 248 265 sawtooth 0;
#X obj 76 -7 inlet;
#X obj 76 17 phasor~;
#X obj 115 -29 inlet;
#X obj 76 38 expr~ ($v1-0.5)*2;
#X obj 76 60 outlet~;
#X connect 0 0 1 0;
#X connect 1 0 3 0;
#X connect 2 0 1 1;
#X connect 3 0 4 0;
#X restore 101 269 pd sawtooth;
#X obj 67 176 osc~;
#N canvas 0 22 450 300 allocator 0;
#X obj 95 60 inlet~;
#X obj 158 60 inlet~;
#X obj 312 60 inlet;
#X floatatom 312 107 5 0 0 0 - - -;
#X floatatom 110 112 5 0 0 0 - - -;
#X obj 312 82 expr ($f1+100)/200;
#X obj 110 91 expr ($f1*-1)+1;
#X obj 158 132 *~ 0.5;
#X obj 95 132 *~ 0.5;
#X obj 190 216 outlet~;
#X connect 0 0 8 0;
#X connect 1 0 7 0;
#X connect 2 0 5 0;
#X connect 3 0 6 0;
#X connect 3 0 7 1;
#X connect 4 0 8 1;
#X connect 5 0 3 0;
#X connect 6 0 4 0;
#X connect 7 0 9 0;
#X connect 8 0 9 0;
#X restore 67 231 pd allocator;
#X floatatom 136 208 5 -100 100 2 --____+ tester_lfo1 -;
#N canvas 0 22 450 300 allocator 0;
#X obj 95 60 inlet~;
#X obj 158 60 inlet~;
#X obj 312 60 inlet;
#X floatatom 312 107 5 0 0 0 - - -;
#X floatatom 110 112 5 0 0 0 - - -;
#X obj 312 82 expr ($f1+100)/200;
#X obj 110 91 expr ($f1*-1)+1;
#X obj 158 132 *~ 0.5;
#X obj 95 132 *~ 0.5;
#X obj 190 216 outlet~;
#X connect 0 0 8 0;
#X connect 1 0 7 0;
#X connect 2 0 5 0;
#X connect 3 0 6 0;
#X connect 3 0 7 1;
#X connect 4 0 8 1;
#X connect 5 0 3 0;
#X connect 6 0 4 0;
#X connect 7 0 9 0;
#X connect 8 0 9 0;
#X restore 67 395 pd allocator;
#X floatatom 136 373 5 -100 100 2 --____+ tester_lfo2 -;
#N canvas 0 22 450 300 allocator 0;
#X obj 95 60 inlet~;
#X obj 158 60 inlet~;
#X obj 312 60 inlet;
#X floatatom 312 107 5 0 0 0 - - -;
#X floatatom 110 112 5 0 0 0 - - -;
#X obj 312 82 expr ($f1+100)/200;
#X obj 110 91 expr ($f1*-1)+1;
#X obj 158 132 *~ 0.5;
#X obj 95 132 *~ 0.5;
#X obj 190 216 outlet~;
#X connect 0 0 8 0;
#X connect 1 0 7 0;
#X connect 2 0 5 0;
#X connect 3 0 6 0;
#X connect 3 0 7 1;
#X connect 4 0 8 1;
#X connect 5 0 3 0;
#X connect 6 0 4 0;
#X connect 7 0 9 0;
#X connect 8 0 9 0;
#X restore 101 324 pd allocator;
#X floatatom 170 302 5 -100 100 2 --____+ tester_lfo1 -;
#X obj 67 54 expr ($f1/60);
#X obj 203 13 inlet;
#X obj 397 12 inlet;
#X obj 203 159 * 0.01;
#X obj 67 444 expr~ ($v1*.5)+$f2;
#X obj 203 93 *;
#X obj 172 393 expr 1-($f1*0.5);
#X obj 209 69 bng 15 250 50 0 empty empty empty 17 7 0 10 -262144 -1
-1;
#X obj 203 137 line;
#X obj 248 95 expr (1000/$f1);
#X obj 203 116 pack f f;
#X obj 249 13 loadbang;
#X msg 249 34 0;
#X obj 67 418 *~ 1;
#X connect 0 0 12 0;
#X connect 2 0 10 1;
#X connect 3 0 6 1;
#X connect 4 0 10 0;
#X connect 5 0 6 0;
#X connect 6 0 8 0;
#X connect 7 0 6 2;
#X connect 8 0 25 0;
#X connect 9 0 8 2;
#X connect 10 0 8 1;
#X connect 11 0 10 2;
#X connect 12 0 21 0;
#X connect 12 0 5 0;
#X connect 12 0 3 0;
#X connect 12 0 4 0;
#X connect 12 0 2 0;
#X connect 13 0 17 0;
#X connect 14 0 17 1;
#X connect 14 0 19 0;
#X connect 15 0 18 0;
#X connect 15 0 25 1;
#X connect 16 0 1 0;
#X connect 17 0 22 0;
#X connect 18 0 16 1;
#X connect 19 0 17 0;
#X connect 20 0 15 0;
#X connect 21 0 22 1;
#X connect 22 0 20 0;
#X connect 23 0 24 0;
#X connect 24 0 15 0;
#X connect 25 0 16 0;
#X restore 384 268 pd lfo;
#X obj 359 292 *~;
#X obj 417 247 tgl 15 0 empty empty on/off 17 7 0 10 -262144 -1 -1
0 1;
#X floatatom 384 202 5 0 600 1 BPM - -;
#X floatatom 400 224 5 0 100 1 depth - -;
#X floatatom 435 280 5 -100 100 2 --____+ - tester_lfo1;
#X floatatom 435 309 5 -100 100 2 --____+ - tester_lfo2;
#X msg 173 16 2205;
#X connect 0 0 1 0;
#X connect 1 0 2 0;
#X connect 1 1 2 1;
#X connect 2 0 5 0;
#X connect 2 0 4 0;
#X connect 2 1 5 1;
#X connect 2 1 4 1;
#X connect 3 0 2 2;
#X connect 16 0 15 0;
#X connect 36 0 0 0;
#X connect 37 0 0 0;
#X connect 38 0 0 0;
#X connect 40 0 41 1;
#X connect 42 0 40 2;
#X connect 43 0 40 0;
#X connect 44 0 40 1;
#X connect 47 0 0 0;
