#N canvas 361 123 802 536 10;
#X floatatom 44 41 5 0 0 2 frq - -;
#N canvas 87 49 1194 672 battery 0;
#X obj 26 15 inlet;
#X obj 49 589 outlet~;
#X obj 204 589 outlet~;
#X text 57 615 obacht: delay lines beim kopieren umbenennen!!!!!!!!!!
;
#X obj 26 35 s choral1_frq;
#X obj 8 78 r choral1_frq;
#X obj 8 100 multiosc;
#X obj 8 122 throw~ choral1_oscs_l;
#X obj 53 142 throw~ choral1_oscs_r;
#X obj 49 544 catch~ choral1_oscs_l;
#X obj 204 544 catch~ choral1_oscs_r;
#X obj 141 78 r choral1_frq;
#X obj 141 100 multiosc;
#X obj 141 122 throw~ choral1_oscs_l;
#X obj 186 142 throw~ choral1_oscs_r;
#X obj 49 566 /~ 2;
#X obj 204 566 /~ 2;
#X connect 0 0 4 0;
#X connect 5 0 6 0;
#X connect 6 0 7 0;
#X connect 6 1 8 0;
#X connect 9 0 15 0;
#X connect 10 0 16 0;
#X connect 11 0 12 0;
#X connect 12 0 13 0;
#X connect 12 1 14 0;
#X connect 15 0 1 0;
#X connect 16 0 2 0;
#X restore 112 149 pd battery;
#X floatatom 163 211 5 0 200 0 - - -;
#X obj 112 274 dac~;
#N canvas 509 376 450 300 oscilloscope 1;
#X obj 30 35 inlet~;
#X obj 76 35 inlet~;
#X obj 30 96 tabwrite~ choral1_left;
#X obj 76 119 tabwrite~ choral1_right;
#X obj 159 56 tgl 15 0 empty empty empty 17 7 0 10 -262144 -1 -1 1
1;
#X obj 159 35 loadbang;
#X obj 159 74 metro 44;
#X connect 0 0 2 0;
#X connect 1 0 3 0;
#X connect 4 0 6 0;
#X connect 5 0 4 0;
#X connect 6 0 2 0;
#X connect 6 0 3 0;
#X restore 170 274 pd oscilloscope;
#N canvas 0 22 450 300 (subpatch) 0;
#X array choral1_left 441 float 0;
#X coords 0 1 440 -1 200 140 1;
#X restore 517 31 graph;
#N canvas 0 22 450 300 (subpatch) 0;
#X array choral1_right 441 float 0;
#X coords 0 1 440 -1 200 140 1;
#X restore 517 195 graph;
#X obj 47 349 cnv 15 700 180 empty empty empty 20 12 0 14 -4032 -262144
0;
#X floatatom 61 499 5 -100 100 0 x - choral1;
#X floatatom 174 499 5 -100 100 0 y - choral2;
#X floatatom 372 462 5 0 2000 1 delay - choral_del1;
#X floatatom 372 501 5 0 99 1 strength(0-99) - choral_del2;
#X floatatom 285 394 5 0 2000 1 stereowidth(0=center) - choral_width
;
#X floatatom 285 371 5 0 2000 1 pulse_offset(0=none) - choral_pulse
;
#X obj 484 396 hsl 96 15 -100 100 0 1 choral_stereolocator empty stereo_pos
25 -8 0 10 -262144 -1 -1 4750 1;
#X msg 481 377 0;
#X floatatom 233 447 5 0 2000 1 glide - choral_glide;
#X obj 372 440 bng 15 250 50 0 choral_killdelay empty kill_delay 17
7 0 10 -262144 -1 -1;
#X obj 481 359 tgl 15 0 choral_randpan empty random_pan? 17 7 0 10
-262144 -1 -1 0 1;
#X floatatom 481 415 5 0 0 1 panspeed(ms) - choral_randpanspeed;
#X obj 248 353 bng 15 250 50 0 choral_randoffset empty random_offset?
17 7 0 10 -262144 -1 -1;
#X obj 355 353 bng 15 250 50 0 choral_normalizeoffset empty normalize?
17 7 0 10 -262144 -1 -1;
#X obj 248 413 bng 15 250 50 0 choral_randwidth empty random_width?
17 7 0 10 -262144 -1 -1;
#X obj 355 413 bng 15 250 50 0 choral_normalizewidth empty normalize?
17 7 0 10 -262144 -1 -1;
#X floatatom 595 399 5 0 500 1 speed(ms) - choral_randspeed;
#X obj 595 378 tgl 15 0 choral_randomize empty randomize? 17 7 0 10
-262144 -1 -1 0 1;
#X floatatom 595 420 5 0 2400 1 spread(x/100_notes) - choral_randspread
;
#X obj 595 358 bng 15 250 50 0 choral_conformize empty conformize 17
7 0 10 -262144 -1 -1;
#X obj 233 485 bng 15 250 50 0 choral_normalizeglide empty normalize?
17 7 0 10 -262144 -1 -1;
#X obj 233 467 bng 15 250 50 0 choral_randglide empty randomize? 17
7 0 10 -262144 -1 -1;
#X obj 501 463 bng 15 250 50 0 choral_randdelay empty randomize? 17
7 0 10 -262144 -1 -1;
#X obj 586 463 bng 15 250 50 0 choral_normalizedelay empty normalize?
17 7 0 10 -262144 -1 -1;
#X obj 501 502 bng 15 250 50 0 choral_randdelstrength empty randomize?
17 7 0 10 -262144 -1 -1;
#X obj 586 502 bng 15 250 50 0 choral_normalizedelstrength empty normalize?
17 7 0 10 -262144 -1 -1;
#X msg 156 50 39;
#X msg 188 50 47;
#X msg 221 50 58;
#X obj 354 181 cnv 15 120 150 empty empty empty 20 12 0 14 -257985
-66577 0;
#N canvas 16 140 580 582 lfo 0;
#X obj 67 13 inlet;
#X obj 67 476 outlet~;
#N canvas 0 22 252 297 square 0;
#X obj 69 -22 inlet;
#X obj 69 45 outlet~;
#X obj 69 2 osc~;
#X obj 90 -44 inlet;
#X obj 69 23 expr~ ((int($v1+1))-0.5)*2;
#X connect 0 0 2 0;
#X connect 2 0 4 0;
#X connect 3 0 2 1;
#X connect 4 0 1 0;
#X restore 177 269 pd square;
#N canvas 274 260 322 323 triangle 0;
#X obj 73 -14 inlet;
#X obj 112 -38 inlet;
#X obj 73 14 phasor~;
#X obj 73 93 outlet~;
#X obj 73 54 expr~ (abs(($v1-0.5)*4)-1);
#X connect 0 0 2 0;
#X connect 1 0 2 1;
#X connect 2 0 4 0;
#X connect 4 0 3 0;
#X restore 101 176 pd triangle;
#N canvas 319 209 248 265 sawtooth 0;
#X obj 76 -7 inlet;
#X obj 76 17 phasor~;
#X obj 115 -29 inlet;
#X obj 76 38 expr~ ($v1-0.5)*2;
#X obj 76 60 outlet~;
#X connect 0 0 1 0;
#X connect 1 0 3 0;
#X connect 2 0 1 1;
#X connect 3 0 4 0;
#X restore 101 269 pd sawtooth;
#X obj 67 176 osc~;
#N canvas 0 22 450 300 allocator 0;
#X obj 95 60 inlet~;
#X obj 158 60 inlet~;
#X obj 312 60 inlet;
#X floatatom 312 107 5 0 0 0 - - -;
#X floatatom 110 112 5 0 0 0 - - -;
#X obj 312 82 expr ($f1+100)/200;
#X obj 110 91 expr ($f1*-1)+1;
#X obj 158 132 *~ 0.5;
#X obj 95 132 *~ 0.5;
#X obj 190 216 outlet~;
#X connect 0 0 8 0;
#X connect 1 0 7 0;
#X connect 2 0 5 0;
#X connect 3 0 6 0;
#X connect 3 0 7 1;
#X connect 4 0 8 1;
#X connect 5 0 3 0;
#X connect 6 0 4 0;
#X connect 7 0 9 0;
#X connect 8 0 9 0;
#X restore 67 231 pd allocator;
#X floatatom 136 208 5 -100 100 2 --____+ tester_lfo1 -;
#N canvas 0 22 450 300 allocator 0;
#X obj 95 60 inlet~;
#X obj 158 60 inlet~;
#X obj 312 60 inlet;
#X floatatom 312 107 5 0 0 0 - - -;
#X floatatom 110 112 5 0 0 0 - - -;
#X obj 312 82 expr ($f1+100)/200;
#X obj 110 91 expr ($f1*-1)+1;
#X obj 158 132 *~ 0.5;
#X obj 95 132 *~ 0.5;
#X obj 190 216 outlet~;
#X connect 0 0 8 0;
#X connect 1 0 7 0;
#X connect 2 0 5 0;
#X connect 3 0 6 0;
#X connect 3 0 7 1;
#X connect 4 0 8 1;
#X connect 5 0 3 0;
#X connect 6 0 4 0;
#X connect 7 0 9 0;
#X connect 8 0 9 0;
#X restore 67 395 pd allocator;
#X floatatom 136 373 5 -100 100 2 --____+ tester_lfo2 -;
#N canvas 0 22 450 300 allocator 0;
#X obj 95 60 inlet~;
#X obj 158 60 inlet~;
#X obj 312 60 inlet;
#X floatatom 312 107 5 0 0 0 - - -;
#X floatatom 110 112 5 0 0 0 - - -;
#X obj 312 82 expr ($f1+100)/200;
#X obj 110 91 expr ($f1*-1)+1;
#X obj 158 132 *~ 0.5;
#X obj 95 132 *~ 0.5;
#X obj 190 216 outlet~;
#X connect 0 0 8 0;
#X connect 1 0 7 0;
#X connect 2 0 5 0;
#X connect 3 0 6 0;
#X connect 3 0 7 1;
#X connect 4 0 8 1;
#X connect 5 0 3 0;
#X connect 6 0 4 0;
#X connect 7 0 9 0;
#X connect 8 0 9 0;
#X restore 101 324 pd allocator;
#X floatatom 170 302 5 -100 100 2 --____+ tester_lfo1 -;
#X obj 67 54 expr ($f1/60);
#X obj 203 13 inlet;
#X obj 397 12 inlet;
#X obj 203 159 * 0.01;
#X obj 67 444 expr~ ($v1*.5)+$f2;
#X obj 203 93 *;
#X obj 172 393 expr 1-($f1*0.5);
#X obj 209 69 bng 15 250 50 0 empty empty empty 17 7 0 10 -262144 -1
-1;
#X obj 203 137 line;
#X obj 248 95 expr (1000/$f1);
#X obj 203 116 pack f f;
#X obj 249 13 loadbang;
#X msg 249 34 0;
#X obj 67 418 *~ 1;
#X connect 0 0 12 0;
#X connect 2 0 10 1;
#X connect 3 0 6 1;
#X connect 4 0 10 0;
#X connect 5 0 6 0;
#X connect 6 0 8 0;
#X connect 7 0 6 2;
#X connect 8 0 25 0;
#X connect 9 0 8 2;
#X connect 10 0 8 1;
#X connect 11 0 10 2;
#X connect 12 0 21 0;
#X connect 12 0 5 0;
#X connect 12 0 3 0;
#X connect 12 0 4 0;
#X connect 12 0 2 0;
#X connect 13 0 17 0;
#X connect 14 0 17 1;
#X connect 14 0 19 0;
#X connect 15 0 18 0;
#X connect 15 0 25 1;
#X connect 16 0 1 0;
#X connect 17 0 22 0;
#X connect 18 0 16 1;
#X connect 19 0 17 0;
#X connect 20 0 15 0;
#X connect 21 0 22 1;
#X connect 22 0 20 0;
#X connect 23 0 24 0;
#X connect 24 0 15 0;
#X connect 25 0 16 0;
#X restore 384 268 pd lfo;
#X obj 359 292 *~;
#X obj 417 247 tgl 15 0 empty empty on/off 17 7 0 10 -262144 -1 -1
0 1;
#X floatatom 384 202 5 0 600 1 BPM - -;
#X floatatom 400 224 5 0 100 1 depth - -;
#X floatatom 435 280 5 -100 100 2 --____+ - tester_lfo1;
#X floatatom 435 309 5 -100 100 2 --____+ - tester_lfo2;
#X msg 173 16 2205;
#X obj 61 369 grid choral_type 120 -100 100 120 -100 100 1 1 1 2 2
-10 227;
#X msg 118 16 0;
#X msg 156 70 40;
#N canvas 90 33 450 300 master 0;
#X obj 90 56 inlet~;
#X obj 140 56 inlet~;
#X obj 192 56 inlet;
#X obj 90 234 outlet~;
#X obj 140 234 outlet~;
#X obj 237 100 loadbang;
#X msg 237 120 0.7;
#X obj 140 196 *~;
#X obj 90 196 *~;
#X obj 192 76 expr ($f1*$f1)*.0001;
#X obj 192 171 line~;
#X msg 192 150 \$1 30;
#X connect 0 0 8 0;
#X connect 1 0 7 0;
#X connect 2 0 9 0;
#X connect 5 0 6 0;
#X connect 6 0 11 0;
#X connect 7 0 4 0;
#X connect 8 0 3 0;
#X connect 9 0 11 0;
#X connect 10 0 7 1;
#X connect 10 0 8 1;
#X connect 11 0 10 0;
#X restore 112 231 pd master;
#X floatatom 481 434 5 0 0 1 stereoglide - choral_stereoglide;
#X obj 371 482 tgl 15 0 empty choral_sampletrigger off:ms///on:sample
17 7 0 10 -262144 -1 -1 0 1;
#X text 233 110 unstimmigkeiten mit phasenabstimmung...?;
#X connect 0 0 1 0;
#X connect 1 0 49 0;
#X connect 1 1 49 1;
#X connect 2 0 49 2;
#X connect 15 0 14 0;
#X connect 34 0 0 0;
#X connect 35 0 0 0;
#X connect 36 0 0 0;
#X connect 38 0 39 1;
#X connect 40 0 38 2;
#X connect 41 0 38 0;
#X connect 42 0 38 1;
#X connect 45 0 0 0;
#X connect 46 0 8 0;
#X connect 46 1 9 0;
#X connect 47 0 0 0;
#X connect 48 0 0 0;
#X connect 49 0 4 0;
#X connect 49 0 3 0;
#X connect 49 1 4 1;
#X connect 49 1 3 1;
