#N canvas 416 183 450 300 10;
#X obj 46 40 inlet~;
#X obj 160 53 inlet;
#X obj 217 53 inlet;
#X text 46 21 signal;
#N canvas 288 97 450 300 delaywriter 0;
#X obj 99 112 inlet~;
#X obj 99 177 outlet~;
#X obj 116 144 delwrite~ \$0-b 5000;
#X connect 0 0 1 0;
#X connect 0 0 2 0;
#X restore 46 191 pd delaywriter;
#N canvas 326 177 308 282 delayreader 0;
#X obj 103 235 outlet~;
#X obj 103 23 inlet~;
#X obj 118 53 inlet;
#X obj 155 235 outlet~;
#X obj 118 117 delread~ \$0-b 5000;
#X connect 1 0 0 0;
#X connect 2 0 4 0;
#X connect 4 0 3 0;
#X restore 46 212 pd delayreader;
#N canvas 0 22 450 300 pathbox 0;
#X obj 116 58 inlet;
#X obj 163 95 == 0;
#X obj 83 166 spigot;
#X obj 130 166 spigot;
#X obj 83 189 / 44.1;
#X obj 83 37 inlet;
#X obj 83 224 outlet;
#X obj 163 37 loadbang;
#X connect 0 0 1 0;
#X connect 0 0 2 1;
#X connect 1 0 3 1;
#X connect 2 0 4 0;
#X connect 3 0 6 0;
#X connect 4 0 6 0;
#X connect 5 0 3 0;
#X connect 5 0 2 0;
#X connect 7 0 1 0;
#X restore 160 148 pd pathbox;
#X obj 217 128 tgl 15 0 empty empty on:sample///off:ms 17 7 0 10 -262144
-1 -1 0 1;
#X obj 46 253 outlet~;
#X text 162 36 delay;
#X text 218 23 1:samplewise \; 0:ms-wise;
#X obj 46 153 +~;
#X obj 76 87 / 100;
#X obj 61 63 r~ \$0-a;
#X obj 127 233 s~ \$0-a;
#X obj 313 53 inlet;
#X text 315 36 strength (0-99);
#X obj 61 128 *~;
#X obj 76 108 line~;
#X connect 0 0 11 0;
#X connect 1 0 6 0;
#X connect 2 0 7 0;
#X connect 4 0 5 0;
#X connect 5 0 8 0;
#X connect 5 1 14 0;
#X connect 6 0 5 1;
#X connect 7 0 6 1;
#X connect 11 0 4 0;
#X connect 12 0 18 0;
#X connect 13 0 17 0;
#X connect 15 0 12 0;
#X connect 17 0 11 1;
#X connect 18 0 17 1;
