#N canvas 544 79 628 426 10;
#X obj 117 133 osc~;
#X floatatom 117 71 5 0 0 0 - - -;
#X obj 228 257 dac~;
#X obj 222 193 *~ 0.7;
#X obj 266 193 / 100;
#X floatatom 266 173 5 0 100 0 - - -;
#X obj 427 241 tabwrite~ lfo_test;
#X obj 467 204 metro 44;
#X obj 467 184 tgl 15 0 empty empty empty 17 7 0 10 -262144 -1 -1 1
1;
#N canvas 0 22 450 300 (subpatch) 0;
#X array lfo_test 441 float 0;
#X coords 0 1 440 -1 200 140 1;
#X restore 385 277 graph;
#X text 22 330 beim kopieren interne LFO-allocators umbenennen!!!!!!!
;
#X obj 484 23 cnv 15 120 150 empty empty empty 20 12 0 14 -257985 -66577
0;
#N canvas 16 140 580 582 lfo 1;
#X obj 67 13 inlet;
#X obj 67 476 outlet~;
#N canvas 0 22 252 297 square 0;
#X obj 69 -22 inlet;
#X obj 69 45 outlet~;
#X obj 69 2 osc~;
#X obj 90 -44 inlet;
#X obj 69 23 expr~ ((int($v1+1))-0.5)*2;
#X connect 0 0 2 0;
#X connect 2 0 4 0;
#X connect 3 0 2 1;
#X connect 4 0 1 0;
#X restore 177 269 pd square;
#N canvas 274 260 322 323 triangle 0;
#X obj 73 -14 inlet;
#X obj 112 -38 inlet;
#X obj 73 14 phasor~;
#X obj 73 93 outlet~;
#X obj 73 54 expr~ (abs(($v1-0.5)*4)-1);
#X connect 0 0 2 0;
#X connect 1 0 2 1;
#X connect 2 0 4 0;
#X connect 4 0 3 0;
#X restore 101 176 pd triangle;
#N canvas 319 209 248 265 sawtooth 0;
#X obj 76 -7 inlet;
#X obj 76 17 phasor~;
#X obj 115 -29 inlet;
#X obj 76 38 expr~ ($v1-0.5)*2;
#X obj 76 60 outlet~;
#X connect 0 0 1 0;
#X connect 1 0 3 0;
#X connect 2 0 1 1;
#X connect 3 0 4 0;
#X restore 101 269 pd sawtooth;
#X obj 67 176 osc~;
#N canvas 0 22 450 300 allocator 0;
#X obj 95 60 inlet~;
#X obj 158 60 inlet~;
#X obj 312 60 inlet;
#X floatatom 312 107 5 0 0 0 - - -;
#X floatatom 110 112 5 0 0 0 - - -;
#X obj 312 82 expr ($f1+100)/200;
#X obj 110 91 expr ($f1*-1)+1;
#X obj 158 132 *~ 0.5;
#X obj 95 132 *~ 0.5;
#X obj 190 216 outlet~;
#X connect 0 0 8 0;
#X connect 1 0 7 0;
#X connect 2 0 5 0;
#X connect 3 0 6 0;
#X connect 3 0 7 1;
#X connect 4 0 8 1;
#X connect 5 0 3 0;
#X connect 6 0 4 0;
#X connect 7 0 9 0;
#X connect 8 0 9 0;
#X restore 67 231 pd allocator;
#X floatatom 136 208 5 -100 100 2 --____+ tester_lfo1 -;
#N canvas 0 22 450 300 allocator 0;
#X obj 95 60 inlet~;
#X obj 158 60 inlet~;
#X obj 312 60 inlet;
#X floatatom 312 107 5 0 0 0 - - -;
#X floatatom 110 112 5 0 0 0 - - -;
#X obj 312 82 expr ($f1+100)/200;
#X obj 110 91 expr ($f1*-1)+1;
#X obj 158 132 *~ 0.5;
#X obj 95 132 *~ 0.5;
#X obj 190 216 outlet~;
#X connect 0 0 8 0;
#X connect 1 0 7 0;
#X connect 2 0 5 0;
#X connect 3 0 6 0;
#X connect 3 0 7 1;
#X connect 4 0 8 1;
#X connect 5 0 3 0;
#X connect 6 0 4 0;
#X connect 7 0 9 0;
#X connect 8 0 9 0;
#X restore 67 395 pd allocator;
#X floatatom 136 373 5 -100 100 2 --____+ tester_lfo2 -;
#N canvas 0 22 450 300 allocator 0;
#X obj 95 60 inlet~;
#X obj 158 60 inlet~;
#X obj 312 60 inlet;
#X floatatom 312 107 5 0 0 0 - - -;
#X floatatom 110 112 5 0 0 0 - - -;
#X obj 312 82 expr ($f1+100)/200;
#X obj 110 91 expr ($f1*-1)+1;
#X obj 158 132 *~ 0.5;
#X obj 95 132 *~ 0.5;
#X obj 190 216 outlet~;
#X connect 0 0 8 0;
#X connect 1 0 7 0;
#X connect 2 0 5 0;
#X connect 3 0 6 0;
#X connect 3 0 7 1;
#X connect 4 0 8 1;
#X connect 5 0 3 0;
#X connect 6 0 4 0;
#X connect 7 0 9 0;
#X connect 8 0 9 0;
#X restore 101 324 pd allocator;
#X floatatom 170 302 5 -100 100 2 --____+ tester_lfo1 -;
#X obj 67 54 expr ($f1/60);
#X obj 203 13 inlet;
#X obj 397 12 inlet;
#X obj 203 159 * 0.01;
#X obj 67 444 expr~ ($v1*.5)+$f2;
#X obj 203 93 *;
#X obj 172 393 expr 1-($f1*0.5);
#X obj 209 69 bng 15 250 50 0 empty empty empty 17 7 0 10 -262144 -1
-1;
#X obj 203 137 line;
#X obj 248 95 expr (1000/$f1);
#X obj 203 116 pack f f;
#X obj 249 13 loadbang;
#X msg 249 34 0;
#X obj 67 418 *~ 1;
#X connect 0 0 12 0;
#X connect 2 0 10 1;
#X connect 3 0 6 1;
#X connect 4 0 10 0;
#X connect 5 0 6 0;
#X connect 6 0 8 0;
#X connect 7 0 6 2;
#X connect 8 0 25 0;
#X connect 9 0 8 2;
#X connect 10 0 8 1;
#X connect 11 0 10 2;
#X connect 12 0 21 0;
#X connect 12 0 5 0;
#X connect 12 0 3 0;
#X connect 12 0 4 0;
#X connect 12 0 2 0;
#X connect 13 0 17 0;
#X connect 14 0 17 1;
#X connect 14 0 19 0;
#X connect 15 0 18 0;
#X connect 15 0 25 1;
#X connect 16 0 1 0;
#X connect 17 0 22 0;
#X connect 18 0 16 1;
#X connect 19 0 17 0;
#X connect 20 0 15 0;
#X connect 21 0 22 1;
#X connect 22 0 20 0;
#X connect 23 0 24 0;
#X connect 24 0 15 0;
#X connect 25 0 16 0;
#X restore 514 110 pd lfo;
#X obj 489 134 *~;
#X obj 547 89 tgl 15 0 empty empty on/off 17 7 0 10 -262144 -1 -1 0
1;
#X floatatom 514 44 5 0 600 1 BPM - -;
#X floatatom 530 66 5 0 100 1 depth - -;
#X floatatom 565 122 5 -100 100 2 --____+ - tester_lfo1;
#X floatatom 565 151 5 -100 100 2 --____+ - tester_lfo2;
#X connect 0 0 13 0;
#X connect 1 0 0 0;
#X connect 3 0 2 0;
#X connect 3 0 2 1;
#X connect 4 0 3 1;
#X connect 5 0 4 0;
#X connect 7 0 6 0;
#X connect 8 0 7 0;
#X connect 12 0 13 1;
#X connect 13 0 6 0;
#X connect 13 0 3 0;
#X connect 14 0 12 2;
#X connect 15 0 12 0;
#X connect 16 0 12 1;
