#N canvas 111 22 1076 731 10;
#N canvas 0 22 252 297 square 0;
#X obj 69 -22 inlet;
#X obj 69 45 outlet~;
#X obj 69 2 osc~;
#X obj 90 -44 inlet;
#X obj 69 23 expr~ ((int($v1+1))-0.5)*2;
#X connect 0 0 2 0;
#X connect 2 0 4 0;
#X connect 3 0 2 1;
#X connect 4 0 1 0;
#X restore 169 325 pd square;
#N canvas 274 260 322 323 triangle 0;
#X obj 73 -14 inlet;
#X obj 112 -38 inlet;
#X obj 73 14 phasor~;
#X obj 73 93 outlet~;
#X obj 73 54 expr~ (abs(($v1-0.5)*4)-1);
#X connect 0 0 2 0;
#X connect 1 0 2 1;
#X connect 2 0 4 0;
#X connect 4 0 3 0;
#X restore 93 232 pd triangle;
#N canvas 319 209 248 265 sawtooth 0;
#X obj 76 -7 inlet;
#X obj 76 17 phasor~;
#X obj 115 -29 inlet;
#X obj 76 38 expr~ ($v1-0.5)*2;
#X obj 76 60 outlet~;
#X connect 0 0 1 0;
#X connect 1 0 3 0;
#X connect 2 0 1 1;
#X connect 3 0 4 0;
#X restore 93 325 pd sawtooth;
#X obj 59 232 osc~;
#N canvas 0 22 450 300 allocator 0;
#X obj 95 60 inlet~;
#X obj 158 60 inlet~;
#X obj 312 60 inlet;
#X floatatom 312 107 5 0 0 0 - - -;
#X floatatom 110 112 5 0 0 0 - - -;
#X obj 312 82 expr ($f1+100)/200;
#X obj 110 91 expr ($f1*-1)+1;
#X obj 158 132 *~ 0.5;
#X obj 95 132 *~ 0.5;
#X obj 190 216 outlet~;
#X connect 0 0 8 0;
#X connect 1 0 7 0;
#X connect 2 0 5 0;
#X connect 3 0 6 0;
#X connect 3 0 7 1;
#X connect 4 0 8 1;
#X connect 5 0 3 0;
#X connect 6 0 4 0;
#X connect 7 0 9 0;
#X connect 8 0 9 0;
#X restore 59 287 pd allocator;
#X floatatom 128 264 5 -100 100 2 --____+ choral1 -;
#N canvas 0 22 450 300 allocator 0;
#X obj 95 60 inlet~;
#X obj 158 60 inlet~;
#X obj 312 60 inlet;
#X floatatom 312 107 5 0 0 0 - - -;
#X floatatom 110 112 5 0 0 0 - - -;
#X obj 312 82 expr ($f1+100)/200;
#X obj 110 91 expr ($f1*-1)+1;
#X obj 158 132 *~ 0.5;
#X obj 95 132 *~ 0.5;
#X obj 190 216 outlet~;
#X connect 0 0 8 0;
#X connect 1 0 7 0;
#X connect 2 0 5 0;
#X connect 3 0 6 0;
#X connect 3 0 7 1;
#X connect 4 0 8 1;
#X connect 5 0 3 0;
#X connect 6 0 4 0;
#X connect 7 0 9 0;
#X connect 8 0 9 0;
#X restore 59 451 pd allocator;
#X floatatom 128 429 5 -100 100 2 --____+ choral2 -;
#N canvas 0 22 450 300 allocator 0;
#X obj 95 60 inlet~;
#X obj 158 60 inlet~;
#X obj 312 60 inlet;
#X floatatom 312 107 5 0 0 0 - - -;
#X floatatom 110 112 5 0 0 0 - - -;
#X obj 312 82 expr ($f1+100)/200;
#X obj 110 91 expr ($f1*-1)+1;
#X obj 158 132 *~ 0.5;
#X obj 95 132 *~ 0.5;
#X obj 190 216 outlet~;
#X connect 0 0 8 0;
#X connect 1 0 7 0;
#X connect 2 0 5 0;
#X connect 3 0 6 0;
#X connect 3 0 7 1;
#X connect 4 0 8 1;
#X connect 5 0 3 0;
#X connect 6 0 4 0;
#X connect 7 0 9 0;
#X connect 8 0 9 0;
#X restore 93 380 pd allocator;
#X floatatom 162 358 5 -100 100 2 --____+ choral1 -;
#X obj 59 659 outlet~;
#X obj 59 11 inlet;
#X obj 99 11 inlet;
#N canvas 0 22 450 300 stereowidth 0;
#X obj 146 71 inlet~;
#X obj 146 167 outlet~;
#X obj 197 167 outlet~;
#X obj 179 138 z~;
#X obj 194 71 inlet;
#X obj 194 115 line;
#X msg 194 93 \$1 20;
#X connect 0 0 1 0;
#X connect 0 0 3 0;
#X connect 3 0 2 0;
#X connect 4 0 6 0;
#X connect 5 0 3 1;
#X connect 6 0 5 0;
#X restore 59 538 pd stereowidth;
#X obj 152 659 outlet~;
#X floatatom 416 476 5 0 2000 1 stereowidth(0=center) choral_width
-;
#N canvas 0 22 450 300 pulsator 0;
#X obj 64 55 inlet~;
#X obj 115 55 inlet;
#X obj 64 175 outlet~;
#X obj 64 115 -~;
#X obj 115 93 z~ 1;
#X obj 208 93 == 0;
#X obj 208 114 tgl 15 0 empty empty empty 17 7 0 10 -262144 -1 -1 0
1;
#X obj 243 93 == 0;
#X obj 243 114 tgl 15 0 empty empty empty 17 7 0 10 -262144 -1 -1 1
1;
#X obj 34 115 *~;
#X obj 152 93 loadbang;
#X obj 64 153 *~;
#X connect 0 0 4 0;
#X connect 0 0 9 0;
#X connect 0 0 3 0;
#X connect 1 0 4 1;
#X connect 1 0 5 0;
#X connect 3 0 11 0;
#X connect 4 0 3 1;
#X connect 5 0 6 0;
#X connect 6 0 7 0;
#X connect 6 0 9 1;
#X connect 7 0 8 0;
#X connect 8 0 11 1;
#X connect 9 0 2 0;
#X connect 10 0 6 0;
#X connect 11 0 2 0;
#X restore 59 495 pd pulsator;
#X floatatom 416 435 5 0 2000 1 pulse_offset(0=none) choral_pulse -
;
#N canvas 37 176 445 357 stereolocator 0;
#X floatatom 253 211 5 0 0 0 - - -;
#X obj 253 161 spigot;
#X floatatom 286 106 5 -100 100 0 - - -;
#X floatatom 72 211 5 0 0 0 - - -;
#X obj 72 161 spigot;
#X obj 105 140 >= 0;
#X obj 286 140 <= 0;
#X obj 253 184 expr (100-$f1*-1)*0.01;
#X obj 72 184 expr (100-$f1)*0.01;
#X obj 57 38 inlet~;
#X obj 238 37 inlet~;
#X obj 286 39 inlet;
#X obj 57 296 outlet~;
#X obj 238 296 outlet~;
#X obj 107 210 sel 0;
#X obj 288 210 sel 0;
#X obj 342 62 loadbang;
#X msg 342 83 0;
#X obj 238 273 *~;
#X obj 57 273 *~;
#X obj 253 249 line~;
#X obj 72 249 line~;
#X connect 0 0 20 0;
#X connect 1 0 7 0;
#X connect 2 0 5 0;
#X connect 2 0 4 0;
#X connect 2 0 6 0;
#X connect 2 0 1 0;
#X connect 3 0 21 0;
#X connect 4 0 8 0;
#X connect 5 0 4 1;
#X connect 5 0 15 0;
#X connect 6 0 1 1;
#X connect 6 0 14 0;
#X connect 7 0 0 0;
#X connect 8 0 3 0;
#X connect 9 0 19 0;
#X connect 10 0 18 0;
#X connect 11 0 2 0;
#X connect 14 1 3 0;
#X connect 15 1 0 0;
#X connect 16 0 17 0;
#X connect 17 0 2 0;
#X connect 18 0 13 0;
#X connect 19 0 12 0;
#X connect 20 0 18 1;
#X connect 21 0 19 1;
#X restore 59 580 pd stereolocator;
#X obj 62 560 hsl 96 15 -100 100 0 1 empty choral_stereolocator stereo_pos
100 8 0 10 -262144 -1 -1 5600 1;
#X obj 59 161 pack f f;
#X msg 59 181 \$1 \$2;
#X obj 59 202 line;
#X obj 59 42 ftom;
#X obj 59 96 mtof;
#X obj 59 517 clip~ -1 1;
#X obj 59 74 +;
#X floatatom 59 119 5 0 0 0 - - -;
#X obj 157 64 bng 15 250 50 0 empty empty empty 17 7 0 10 -262144 -1
-1;
#X obj 152 604 delayer;
#X obj 201 606 tgl 15 0 empty choral_sampletrigger on:sample///off:ms
17 7 0 10 -262144 -1 -1 0 1;
#X obj 59 604 delayer;
#N canvas 0 22 450 300 random_offset 0;
#X obj 25 193 outlet;
#X obj 25 61 bng 15 250 50 0 empty choral_randoffset random_offset?
17 7 0 10 -262144 -1 -1;
#X obj 25 79 random 2001;
#X floatatom 25 145 5 0 0 0 - - -;
#X obj 25 122 line;
#X msg 25 101 \$1 20;
#X obj 132 61 bng 15 250 50 0 empty choral_normalizeoffset normalize?
17 7 0 10 -262144 -1 -1;
#X msg 132 79 0;
#X connect 1 0 2 0;
#X connect 2 0 5 0;
#X connect 3 0 0 0;
#X connect 4 0 3 0;
#X connect 5 0 4 0;
#X connect 6 0 7 0;
#X connect 7 0 5 0;
#X restore 416 453 pd random_offset;
#N canvas 0 22 450 300 random_width 0;
#X obj 80 78 outlet;
#X obj 80 -39 bng 15 250 50 0 empty choral_randwidth random_width?
17 7 0 10 -262144 -1 -1;
#X obj 80 -21 random 2001;
#X floatatom 80 45 5 0 0 0 - - -;
#X obj 80 22 line;
#X msg 80 1 \$1 20;
#X obj 187 -39 bng 15 250 50 0 empty choral_normalizewidth normalize?
17 7 0 10 -262144 -1 -1;
#X msg 187 -21 0;
#X connect 1 0 2 0;
#X connect 2 0 5 0;
#X connect 3 0 0 0;
#X connect 4 0 3 0;
#X connect 5 0 4 0;
#X connect 6 0 7 0;
#X connect 7 0 5 0;
#X restore 416 494 pd random_width;
#N canvas 0 22 450 300 stereopanner 0;
#X obj 121 253 outlet;
#X obj 121 126 random 201;
#X obj 121 146 - 100;
#X obj 121 87 tgl 15 0 empty choral_randpan random_pan? 17 7 0 10 -262144
-1 -1 0 1;
#X obj 121 105 metro;
#X floatatom 148 65 5 0 0 1 panspeed(ms) choral_randpanspeed -;
#X floatatom 121 214 5 0 0 0 - - -;
#X obj 82 105 sel 0;
#X msg 82 125 0;
#X obj 121 190 line;
#X obj 121 168 pack f f;
#X floatatom 176 169 5 0 0 1 sstereoglide choral_stereoglide -;
#X connect 1 0 2 0;
#X connect 2 0 10 0;
#X connect 3 0 4 0;
#X connect 3 0 7 0;
#X connect 4 0 1 0;
#X connect 5 0 4 1;
#X connect 6 0 0 0;
#X connect 7 0 8 0;
#X connect 8 0 10 0;
#X connect 9 0 6 0;
#X connect 10 0 9 0;
#X connect 11 0 10 1;
#X restore 169 580 pd stereopanner;
#N canvas 0 22 450 300 randomize_input 0;
#X obj 92 244 outlet;
#X floatatom 158 50 5 0 500 1 speed(ms) choral_randspeed -;
#X obj 92 94 metro;
#X obj 158 29 tgl 15 0 empty choral_randomize randomize? 17 7 0 10
-262144 -1 -1 1 1;
#X obj 92 134 random;
#X floatatom 158 71 5 0 2400 1 spread(x/100_notes) choral_randspread
-;
#X obj 92 155 / 100;
#X obj 92 197 -;
#X obj 107 177 / 200;
#X floatatom 92 218 5 0 0 0 - - -;
#X obj 164 91 bng 15 250 50 0 empty choral_conformize conformize 17
7 0 10 -262144 -1 -1;
#X msg 78 59 0;
#X obj 125 115 + 1;
#X connect 1 0 2 1;
#X connect 2 0 4 0;
#X connect 3 0 2 0;
#X connect 4 0 6 0;
#X connect 5 0 8 0;
#X connect 5 0 12 0;
#X connect 6 0 7 0;
#X connect 7 0 9 0;
#X connect 8 0 7 1;
#X connect 9 0 0 0;
#X connect 10 0 11 0;
#X connect 11 0 9 0;
#X connect 12 0 4 1;
#X restore 157 43 pd randomize_input;
#N canvas 0 22 450 300 random_glide 0;
#X obj 156 202 outlet;
#X floatatom 150 117 5 0 2000 1 glide choral_glide -;
#X obj 156 157 random;
#X obj 189 138 + 1;
#X obj 156 139 bng 15 250 50 0 empty choral_randglide empty 17 7 0
10 -262144 -1 -1;
#X floatatom 156 179 5 0 0 0 - - -;
#X obj 131 157 f;
#X obj 131 118 bng 15 250 50 0 empty choral_normalizeglide empty 17
7 0 10 -262144 -1 -1;
#X connect 1 0 3 0;
#X connect 1 0 6 0;
#X connect 2 0 5 0;
#X connect 3 0 2 1;
#X connect 4 0 2 0;
#X connect 5 0 0 0;
#X connect 6 0 5 0;
#X connect 7 0 6 0;
#X restore 159 160 pd random_glide;
#N canvas 0 22 628 322 delay_inputs 0;
#X floatatom 172 44 5 0 2000 1 delay(ms) choral_del1 -;
#X floatatom 336 43 5 0 99 1 strength(0-99) choral_del2 -;
#X floatatom 414 168 5 0 0 0 - - -;
#X obj 414 147 expr ((100-$f1))*0.01;
#X text 449 168 safety volume adjustment;
#X obj 24 71 bng 15 250 50 0 empty choral_killdelay kill_delay 17 7
0 10 -262144 -1 -1;
#X msg 24 90 0;
#X floatatom 172 105 5 0 0 0 - - -;
#X obj 172 84 random;
#X obj 205 65 + 1;
#X obj 172 66 bng 15 250 50 0 empty choral_randdelay empty 17 7 0 10
-262144 -1 -1;
#X obj 147 84 f;
#X obj 147 45 bng 15 250 50 0 empty choral_normalizedelay empty 17
7 0 10 -262144 -1 -1;
#X floatatom 336 103 5 0 0 0 - - -;
#X obj 336 82 random;
#X obj 369 63 + 1;
#X obj 336 64 bng 15 250 50 0 empty choral_randdelstrength empty 17
7 0 10 -262144 -1 -1;
#X obj 311 82 f;
#X obj 311 44 bng 15 250 50 0 empty choral_normalizedelstrength empty
17 7 0 10 -262144 -1 -1;
#X obj 24 247 outlet;
#X obj 172 247 outlet;
#X obj 336 247 outlet;
#X obj 458 198 loadbang;
#X obj 414 218 line~;
#X msg 414 198 \$1 30;
#X msg 458 218 1;
#X obj 414 247 outlet~;
#X connect 0 0 11 0;
#X connect 0 0 9 0;
#X connect 1 0 17 0;
#X connect 1 0 15 0;
#X connect 1 0 21 0;
#X connect 2 0 24 0;
#X connect 3 0 2 0;
#X connect 5 0 6 0;
#X connect 6 0 3 0;
#X connect 6 0 19 0;
#X connect 7 0 20 0;
#X connect 8 0 7 0;
#X connect 9 0 8 1;
#X connect 10 0 8 0;
#X connect 11 0 7 0;
#X connect 12 0 11 0;
#X connect 14 0 13 0;
#X connect 15 0 14 1;
#X connect 16 0 14 0;
#X connect 17 0 13 0;
#X connect 18 0 17 0;
#X connect 22 0 25 0;
#X connect 23 0 26 0;
#X connect 24 0 23 0;
#X connect 25 0 24 0;
#X restore 184 625 pd delay_inputs;
#X obj 59 625 *~;
#X obj 152 625 *~;
#X obj 21 96 sel 0;
#X msg 21 117 0;
#N canvas 777 424 314 225 holdnote 0;
#X obj 41 35 inlet;
#X obj 130 53 inlet;
#X obj 130 94 expr (1-$f1);
#X obj 130 118 tgl 15 0 empty empty empty 17 7 0 10 -262144 -1 -1 1
1;
#X obj 74 118 tgl 15 0 empty empty empty 17 7 0 10 -262144 -1 -1 0
1;
#X obj 97 137 spigot;
#X obj 41 137 spigot;
#X floatatom 41 161 5 0 0 0 - - -;
#X obj 41 68 sel 0;
#X msg 41 89 0;
#X floatatom 68 90 5 0 0 0 - - -;
#X obj 41 181 outlet;
#X obj 200 46 loadbang;
#X msg 200 66 0;
#X connect 0 0 8 0;
#X connect 1 0 2 0;
#X connect 1 0 4 0;
#X connect 2 0 3 0;
#X connect 3 0 5 1;
#X connect 4 0 6 1;
#X connect 5 0 7 0;
#X connect 6 0 7 0;
#X connect 7 0 11 0;
#X connect 8 0 9 0;
#X connect 8 1 10 0;
#X connect 9 0 6 0;
#X connect 10 0 6 0;
#X connect 10 0 5 0;
#X connect 12 0 13 0;
#X connect 13 0 2 0;
#X connect 13 0 4 0;
#X restore 59 140 pd holdnote;
#X floatatom 183 118 5 0 0 1 holdnote_OFF choral_holdnote -;
#X obj 581 136 adsr 1 100 200 50 300;
#X floatatom 605 109 5 0 0 0 - choral_adsr_lvl -;
#X floatatom 630 88 5 0 0 0 - choral_adsr_attk -;
#X floatatom 654 109 5 0 0 0 - choral_adsr_dec -;
#X floatatom 679 88 5 0 300 0 - choral_adsr_sus -;
#X floatatom 704 109 5 0 0 0 - choral_adsr_rel -;
#X obj 59 473 *~;
#X connect 0 0 8 1;
#X connect 1 0 4 1;
#X connect 2 0 8 0;
#X connect 3 0 4 0;
#X connect 4 0 6 0;
#X connect 5 0 4 2;
#X connect 6 0 50 0;
#X connect 7 0 6 2;
#X connect 8 0 6 1;
#X connect 9 0 8 2;
#X connect 11 0 23 0;
#X connect 11 0 44 0;
#X connect 12 0 3 1;
#X connect 12 0 1 1;
#X connect 12 0 2 1;
#X connect 12 0 0 1;
#X connect 13 0 18 0;
#X connect 13 1 18 1;
#X connect 15 0 13 1;
#X connect 16 0 25 0;
#X connect 17 0 16 1;
#X connect 18 0 31 0;
#X connect 18 1 29 0;
#X connect 19 0 18 2;
#X connect 20 0 21 0;
#X connect 21 0 22 0;
#X connect 22 0 3 0;
#X connect 22 0 1 0;
#X connect 22 0 2 0;
#X connect 22 0 0 0;
#X connect 23 0 26 0;
#X connect 24 0 27 0;
#X connect 25 0 13 0;
#X connect 26 0 24 0;
#X connect 26 0 40 0;
#X connect 27 0 42 0;
#X connect 28 0 26 0;
#X connect 29 0 39 0;
#X connect 30 0 29 2;
#X connect 30 0 31 2;
#X connect 31 0 38 0;
#X connect 32 0 16 1;
#X connect 33 0 13 1;
#X connect 34 0 18 2;
#X connect 35 0 26 1;
#X connect 35 0 28 0;
#X connect 36 0 20 1;
#X connect 37 0 31 3;
#X connect 37 0 29 3;
#X connect 37 1 31 1;
#X connect 37 1 29 1;
#X connect 37 2 29 3;
#X connect 37 2 31 3;
#X connect 37 3 39 1;
#X connect 37 3 38 1;
#X connect 38 0 10 0;
#X connect 39 0 14 0;
#X connect 40 0 41 0;
#X connect 41 0 27 0;
#X connect 42 0 20 0;
#X connect 43 0 42 1;
#X connect 44 0 50 1;
#X connect 45 0 44 1;
#X connect 46 0 44 2;
#X connect 47 0 44 3;
#X connect 48 0 44 4;
#X connect 49 0 44 5;
#X connect 50 0 16 0;
